<?xml version="1.0" encoding="utf-8"?>
<svg version="1.1" xmlns="http://www.w3.org/2000/svg" xmlns:xlink="http://www.w3.org/1999/xlink" width="1000" height="1000" viewBox="0 0 1000 1000" enable-background="new 0 0 1000 1000" xml:space="preserve"><g transform="translate(0,0) scale(1.0,1.0)"><svg width="1000" height="1000" viewBox="0 0 740 740" enable-background="new 0 0 1000 1000" xml:space="preserve"><rect x="0" y="0" width="740" height="740" fill="rgb(255,255,255)" opacity="1.0" /><rect x="240" y="80" width="20" height="20" fill="rgb(0,0,0)" opacity="1.0" shape-rendering="crispEdges" /><rect x="280" y="80" width="20" height="20" fill="rgb(0,0,0)" opacity="1.0" shape-rendering="crispEdges" /><rect x="300" y="80" width="20" height="20" fill="rgb(0,0,0)" opacity="1.0" shape-rendering="crispEdges" /><rect x="440" y="80" width="20" height="20" fill="rgb(0,0,0)" opacity="1.0" shape-rendering="crispEdges" /><rect x="460" y="80" width="20" height="20" fill="rgb(0,0,0)" opacity="1.0" shape-rendering="crispEdges" /><rect x="280" y="100" width="20" height="20" fill="rgb(0,0,0)" opacity="1.0" shape-rendering="crispEdges" /><rect x="320" y="100" width="20" height="20" fill="rgb(0,0,0)" opacity="1.0" shape-rendering="crispEdges" /><rect x="400" y="100" width="20" height="20" fill="rgb(0,0,0)" opacity="1.0" shape-rendering="crispEdges" /><rect x="420" y="100" width="20" height="20" fill="rgb(0,0,0)" opacity="1.0" shape-rendering="crispEdges" /><rect x="460" y="100" width="20" height="20" fill="rgb(0,0,0)" opacity="1.0" shape-rendering="crispEdges" /><rect x="260" y="120" width="20" height="20" fill="rgb(0,0,0)" opacity="1.0" shape-rendering="crispEdges" /><rect x="280" y="120" width="20" height="20" fill="rgb(0,0,0)" opacity="1.0" shape-rendering="crispEdges" /><rect x="300" y="120" width="20" height="20" fill="rgb(0,0,0)" opacity="1.0" shape-rendering="crispEdges" /><rect x="340" y="120" width="20" height="20" fill="rgb(0,0,0)" opacity="1.0" shape-rendering="crispEdges" /><rect x="380" y="120" width="20" height="20" fill="rgb(0,0,0)" opacity="1.0" shape-rendering="crispEdges" /><rect x="400" y="120" width="20" height="20" fill="rgb(0,0,0)" opacity="1.0" shape-rendering="crispEdges" /><rect x="460" y="120" width="20" height="20" fill="rgb(0,0,0)" opacity="1.0" shape-rendering="crispEdges" /><rect x="480" y="120" width="20" height="20" fill="rgb(0,0,0)" opacity="1.0" shape-rendering="crispEdges" /><rect x="240" y="140" width="20" height="20" fill="rgb(0,0,0)" opacity="1.0" shape-rendering="crispEdges" /><rect x="260" y="140" width="20" height="20" fill="rgb(0,0,0)" opacity="1.0" shape-rendering="crispEdges" /><rect x="300" y="140" width="20" height="20" fill="rgb(0,0,0)" opacity="1.0" shape-rendering="crispEdges" /><rect x="320" y="140" width="20" height="20" fill="rgb(0,0,0)" opacity="1.0" shape-rendering="crispEdges" /><rect x="360" y="140" width="20" height="20" fill="rgb(0,0,0)" opacity="1.0" shape-rendering="crispEdges" /><rect x="380" y="140" width="20" height="20" fill="rgb(0,0,0)" opacity="1.0" shape-rendering="crispEdges" /><rect x="400" y="140" width="20" height="20" fill="rgb(0,0,0)" opacity="1.0" shape-rendering="crispEdges" /><rect x="420" y="140" width="20" height="20" fill="rgb(0,0,0)" opacity="1.0" shape-rendering="crispEdges" /><rect x="480" y="140" width="20" height="20" fill="rgb(0,0,0)" opacity="1.0" shape-rendering="crispEdges" /><rect x="240" y="160" width="20" height="20" fill="rgb(0,0,0)" opacity="1.0" shape-rendering="crispEdges" /><rect x="300" y="160" width="20" height="20" fill="rgb(0,0,0)" opacity="1.0" shape-rendering="crispEdges" /><rect x="340" y="160" width="20" height="20" fill="rgb(0,0,0)" opacity="1.0" shape-rendering="crispEdges" /><rect x="360" y="160" width="20" height="20" fill="rgb(0,0,0)" opacity="1.0" shape-rendering="crispEdges" /><rect x="400" y="160" width="20" height="20" fill="rgb(0,0,0)" opacity="1.0" shape-rendering="crispEdges" /><rect x="440" y="160" width="20" height="20" fill="rgb(0,0,0)" opacity="1.0" shape-rendering="crispEdges" /><rect x="460" y="160" width="20" height="20" fill="rgb(0,0,0)" opacity="1.0" shape-rendering="crispEdges" /><rect x="480" y="160" width="20" height="20" fill="rgb(0,0,0)" opacity="1.0" shape-rendering="crispEdges" /><rect x="240" y="180" width="20" height="20" fill="rgb(0,0,0)" opacity="1.0" shape-rendering="crispEdges" /><rect x="300" y="180" width="20" height="20" fill="rgb(0,0,0)" opacity="1.0" shape-rendering="crispEdges" /><rect x="340" y="180" width="20" height="20" fill="rgb(0,0,0)" opacity="1.0" shape-rendering="crispEdges" /><rect x="360" y="180" width="20" height="20" fill="rgb(0,0,0)" opacity="1.0" shape-rendering="crispEdges" /><rect x="380" y="180" width="20" height="20" fill="rgb(0,0,0)" opacity="1.0" shape-rendering="crispEdges" /><rect x="420" y="180" width="20" height="20" fill="rgb(0,0,0)" opacity="1.0" shape-rendering="crispEdges" /><rect x="480" y="180" width="20" height="20" fill="rgb(0,0,0)" opacity="1.0" shape-rendering="crispEdges" /><rect x="240" y="200" width="20" height="20" fill="rgb(0,0,0)" opacity="1.0" shape-rendering="crispEdges" /><rect x="280" y="200" width="20" height="20" fill="rgb(0,0,0)" opacity="1.0" shape-rendering="crispEdges" /><rect x="320" y="200" width="20" height="20" fill="rgb(0,0,0)" opacity="1.0" shape-rendering="crispEdges" /><rect x="360" y="200" width="20" height="20" fill="rgb(0,0,0)" opacity="1.0" shape-rendering="crispEdges" /><rect x="400" y="200" width="20" height="20" fill="rgb(0,0,0)" opacity="1.0" shape-rendering="crispEdges" /><rect x="440" y="200" width="20" height="20" fill="rgb(0,0,0)" opacity="1.0" shape-rendering="crispEdges" /><rect x="480" y="200" width="20" height="20" fill="rgb(0,0,0)" opacity="1.0" shape-rendering="crispEdges" /><rect x="240" y="220" width="20" height="20" fill="rgb(0,0,0)" opacity="1.0" shape-rendering="crispEdges" /><rect x="260" y="220" width="20" height="20" fill="rgb(0,0,0)" opacity="1.0" shape-rendering="crispEdges" /><rect x="320" y="220" width="20" height="20" fill="rgb(0,0,0)" opacity="1.0" shape-rendering="crispEdges" /><rect x="360" y="220" width="20" height="20" fill="rgb(0,0,0)" opacity="1.0" shape-rendering="crispEdges" /><rect x="420" y="220" width="20" height="20" fill="rgb(0,0,0)" opacity="1.0" shape-rendering="crispEdges" /><rect x="440" y="220" width="20" height="20" fill="rgb(0,0,0)" opacity="1.0" shape-rendering="crispEdges" /><rect x="460" y="220" width="20" height="20" fill="rgb(0,0,0)" opacity="1.0" shape-rendering="crispEdges" /><rect x="480" y="220" width="20" height="20" fill="rgb(0,0,0)" opacity="1.0" shape-rendering="crispEdges" /><rect x="80" y="240" width="20" height="20" fill="rgb(0,0,0)" opacity="1.0" shape-rendering="crispEdges" /><rect x="160" y="240" width="20" height="20" fill="rgb(0,0,0)" opacity="1.0" shape-rendering="crispEdges" /><rect x="200" y="240" width="20" height="20" fill="rgb(0,0,0)" opacity="1.0" shape-rendering="crispEdges" /><rect x="220" y="240" width="20" height="20" fill="rgb(0,0,0)" opacity="1.0" shape-rendering="crispEdges" /><rect x="240" y="240" width="20" height="20" fill="rgb(0,0,0)" opacity="1.0" shape-rendering="crispEdges" /><rect x="320" y="240" width="20" height="20" fill="rgb(0,0,0)" opacity="1.0" shape-rendering="crispEdges" /><rect x="340" y="240" width="20" height="20" fill="rgb(0,0,0)" opacity="1.0" shape-rendering="crispEdges" /><rect x="360" y="240" width="20" height="20" fill="rgb(0,0,0)" opacity="1.0" shape-rendering="crispEdges" /><rect x="380" y="240" width="20" height="20" fill="rgb(0,0,0)" opacity="1.0" shape-rendering="crispEdges" /><rect x="400" y="240" width="20" height="20" fill="rgb(0,0,0)" opacity="1.0" shape-rendering="crispEdges" /><rect x="460" y="240" width="20" height="20" fill="rgb(0,0,0)" opacity="1.0" shape-rendering="crispEdges" /><rect x="500" y="240" width="20" height="20" fill="rgb(0,0,0)" opacity="1.0" shape-rendering="crispEdges" /><rect x="520" y="240" width="20" height="20" fill="rgb(0,0,0)" opacity="1.0" shape-rendering="crispEdges" /><rect x="540" y="240" width="20" height="20" fill="rgb(0,0,0)" opacity="1.0" shape-rendering="crispEdges" /><rect x="560" y="240" width="20" height="20" fill="rgb(0,0,0)" opacity="1.0" shape-rendering="crispEdges" /><rect x="580" y="240" width="20" height="20" fill="rgb(0,0,0)" opacity="1.0" shape-rendering="crispEdges" /><rect x="640" y="240" width="20" height="20" fill="rgb(0,0,0)" opacity="1.0" shape-rendering="crispEdges" /><rect x="80" y="260" width="20" height="20" fill="rgb(0,0,0)" opacity="1.0" shape-rendering="crispEdges" /><rect x="100" y="260" width="20" height="20" fill="rgb(0,0,0)" opacity="1.0" shape-rendering="crispEdges" /><rect x="120" y="260" width="20" height="20" fill="rgb(0,0,0)" opacity="1.0" shape-rendering="crispEdges" /><rect x="140" y="260" width="20" height="20" fill="rgb(0,0,0)" opacity="1.0" shape-rendering="crispEdges" /><rect x="180" y="260" width="20" height="20" fill="rgb(0,0,0)" opacity="1.0" shape-rendering="crispEdges" /><rect x="220" y="260" width="20" height="20" fill="rgb(0,0,0)" opacity="1.0" shape-rendering="crispEdges" /><rect x="280" y="260" width="20" height="20" fill="rgb(0,0,0)" opacity="1.0" shape-rendering="crispEdges" /><rect x="300" y="260" width="20" height="20" fill="rgb(0,0,0)" opacity="1.0" shape-rendering="crispEdges" /><rect x="320" y="260" width="20" height="20" fill="rgb(0,0,0)" opacity="1.0" shape-rendering="crispEdges" /><rect x="500" y="260" width="20" height="20" fill="rgb(0,0,0)" opacity="1.0" shape-rendering="crispEdges" /><rect x="520" y="260" width="20" height="20" fill="rgb(0,0,0)" opacity="1.0" shape-rendering="crispEdges" /><rect x="540" y="260" width="20" height="20" fill="rgb(0,0,0)" opacity="1.0" shape-rendering="crispEdges" /><rect x="600" y="260" width="20" height="20" fill="rgb(0,0,0)" opacity="1.0" shape-rendering="crispEdges" /><rect x="80" y="280" width="20" height="20" fill="rgb(0,0,0)" opacity="1.0" shape-rendering="crispEdges" /><rect x="100" y="280" width="20" height="20" fill="rgb(0,0,0)" opacity="1.0" shape-rendering="crispEdges" /><rect x="180" y="280" width="20" height="20" fill="rgb(0,0,0)" opacity="1.0" shape-rendering="crispEdges" /><rect x="200" y="280" width="20" height="20" fill="rgb(0,0,0)" opacity="1.0" shape-rendering="crispEdges" /><rect x="260" y="280" width="20" height="20" fill="rgb(0,0,0)" opacity="1.0" shape-rendering="crispEdges" /><rect x="280" y="280" width="20" height="20" fill="rgb(0,0,0)" opacity="1.0" shape-rendering="crispEdges" /><rect x="300" y="280" width="20" height="20" fill="rgb(0,0,0)" opacity="1.0" shape-rendering="crispEdges" /><rect x="340" y="280" width="20" height="20" fill="rgb(0,0,0)" opacity="1.0" shape-rendering="crispEdges" /><rect x="360" y="280" width="20" height="20" fill="rgb(0,0,0)" opacity="1.0" shape-rendering="crispEdges" /><rect x="380" y="280" width="20" height="20" fill="rgb(0,0,0)" opacity="1.0" shape-rendering="crispEdges" /><rect x="440" y="280" width="20" height="20" fill="rgb(0,0,0)" opacity="1.0" shape-rendering="crispEdges" /><rect x="520" y="280" width="20" height="20" fill="rgb(0,0,0)" opacity="1.0" shape-rendering="crispEdges" /><rect x="540" y="280" width="20" height="20" fill="rgb(0,0,0)" opacity="1.0" shape-rendering="crispEdges" /><rect x="560" y="280" width="20" height="20" fill="rgb(0,0,0)" opacity="1.0" shape-rendering="crispEdges" /><rect x="580" y="280" width="20" height="20" fill="rgb(0,0,0)" opacity="1.0" shape-rendering="crispEdges" /><rect x="600" y="280" width="20" height="20" fill="rgb(0,0,0)" opacity="1.0" shape-rendering="crispEdges" /><rect x="640" y="280" width="20" height="20" fill="rgb(0,0,0)" opacity="1.0" shape-rendering="crispEdges" /><rect x="80" y="300" width="20" height="20" fill="rgb(0,0,0)" opacity="1.0" shape-rendering="crispEdges" /><rect x="100" y="300" width="20" height="20" fill="rgb(0,0,0)" opacity="1.0" shape-rendering="crispEdges" /><rect x="140" y="300" width="20" height="20" fill="rgb(0,0,0)" opacity="1.0" shape-rendering="crispEdges" /><rect x="160" y="300" width="20" height="20" fill="rgb(0,0,0)" opacity="1.0" shape-rendering="crispEdges" /><rect x="180" y="300" width="20" height="20" fill="rgb(0,0,0)" opacity="1.0" shape-rendering="crispEdges" /><rect x="260" y="300" width="20" height="20" fill="rgb(0,0,0)" opacity="1.0" shape-rendering="crispEdges" /><rect x="300" y="300" width="20" height="20" fill="rgb(0,0,0)" opacity="1.0" shape-rendering="crispEdges" /><rect x="320" y="300" width="20" height="20" fill="rgb(0,0,0)" opacity="1.0" shape-rendering="crispEdges" /><rect x="340" y="300" width="20" height="20" fill="rgb(0,0,0)" opacity="1.0" shape-rendering="crispEdges" /><rect x="380" y="300" width="20" height="20" fill="rgb(0,0,0)" opacity="1.0" shape-rendering="crispEdges" /><rect x="400" y="300" width="20" height="20" fill="rgb(0,0,0)" opacity="1.0" shape-rendering="crispEdges" /><rect x="420" y="300" width="20" height="20" fill="rgb(0,0,0)" opacity="1.0" shape-rendering="crispEdges" /><rect x="460" y="300" width="20" height="20" fill="rgb(0,0,0)" opacity="1.0" shape-rendering="crispEdges" /><rect x="480" y="300" width="20" height="20" fill="rgb(0,0,0)" opacity="1.0" shape-rendering="crispEdges" /><rect x="580" y="300" width="20" height="20" fill="rgb(0,0,0)" opacity="1.0" shape-rendering="crispEdges" /><rect x="80" y="320" width="20" height="20" fill="rgb(0,0,0)" opacity="1.0" shape-rendering="crispEdges" /><rect x="140" y="320" width="20" height="20" fill="rgb(0,0,0)" opacity="1.0" shape-rendering="crispEdges" /><rect x="180" y="320" width="20" height="20" fill="rgb(0,0,0)" opacity="1.0" shape-rendering="crispEdges" /><rect x="200" y="320" width="20" height="20" fill="rgb(0,0,0)" opacity="1.0" shape-rendering="crispEdges" /><rect x="220" y="320" width="20" height="20" fill="rgb(0,0,0)" opacity="1.0" shape-rendering="crispEdges" /><rect x="240" y="320" width="20" height="20" fill="rgb(0,0,0)" opacity="1.0" shape-rendering="crispEdges" /><rect x="260" y="320" width="20" height="20" fill="rgb(0,0,0)" opacity="1.0" shape-rendering="crispEdges" /><rect x="300" y="320" width="20" height="20" fill="rgb(0,0,0)" opacity="1.0" shape-rendering="crispEdges" /><rect x="320" y="320" width="20" height="20" fill="rgb(0,0,0)" opacity="1.0" shape-rendering="crispEdges" /><rect x="340" y="320" width="20" height="20" fill="rgb(0,0,0)" opacity="1.0" shape-rendering="crispEdges" /><rect x="420" y="320" width="20" height="20" fill="rgb(0,0,0)" opacity="1.0" shape-rendering="crispEdges" /><rect x="440" y="320" width="20" height="20" fill="rgb(0,0,0)" opacity="1.0" shape-rendering="crispEdges" /><rect x="460" y="320" width="20" height="20" fill="rgb(0,0,0)" opacity="1.0" shape-rendering="crispEdges" /><rect x="480" y="320" width="20" height="20" fill="rgb(0,0,0)" opacity="1.0" shape-rendering="crispEdges" /><rect x="580" y="320" width="20" height="20" fill="rgb(0,0,0)" opacity="1.0" shape-rendering="crispEdges" /><rect x="600" y="320" width="20" height="20" fill="rgb(0,0,0)" opacity="1.0" shape-rendering="crispEdges" /><rect x="620" y="320" width="20" height="20" fill="rgb(0,0,0)" opacity="1.0" shape-rendering="crispEdges" /><rect x="180" y="340" width="20" height="20" fill="rgb(0,0,0)" opacity="1.0" shape-rendering="crispEdges" /><rect x="240" y="340" width="20" height="20" fill="rgb(0,0,0)" opacity="1.0" shape-rendering="crispEdges" /><rect x="260" y="340" width="20" height="20" fill="rgb(0,0,0)" opacity="1.0" shape-rendering="crispEdges" /><rect x="340" y="340" width="20" height="20" fill="rgb(0,0,0)" opacity="1.0" shape-rendering="crispEdges" /><rect x="360" y="340" width="20" height="20" fill="rgb(0,0,0)" opacity="1.0" shape-rendering="crispEdges" /><rect x="400" y="340" width="20" height="20" fill="rgb(0,0,0)" opacity="1.0" shape-rendering="crispEdges" /><rect x="440" y="340" width="20" height="20" fill="rgb(0,0,0)" opacity="1.0" shape-rendering="crispEdges" /><rect x="540" y="340" width="20" height="20" fill="rgb(0,0,0)" opacity="1.0" shape-rendering="crispEdges" /><rect x="600" y="340" width="20" height="20" fill="rgb(0,0,0)" opacity="1.0" shape-rendering="crispEdges" /><rect x="80" y="360" width="20" height="20" fill="rgb(0,0,0)" opacity="1.0" shape-rendering="crispEdges" /><rect x="100" y="360" width="20" height="20" fill="rgb(0,0,0)" opacity="1.0" shape-rendering="crispEdges" /><rect x="140" y="360" width="20" height="20" fill="rgb(0,0,0)" opacity="1.0" shape-rendering="crispEdges" /><rect x="200" y="360" width="20" height="20" fill="rgb(0,0,0)" opacity="1.0" shape-rendering="crispEdges" /><rect x="240" y="360" width="20" height="20" fill="rgb(0,0,0)" opacity="1.0" shape-rendering="crispEdges" /><rect x="260" y="360" width="20" height="20" fill="rgb(0,0,0)" opacity="1.0" shape-rendering="crispEdges" /><rect x="280" y="360" width="20" height="20" fill="rgb(0,0,0)" opacity="1.0" shape-rendering="crispEdges" /><rect x="300" y="360" width="20" height="20" fill="rgb(0,0,0)" opacity="1.0" shape-rendering="crispEdges" /><rect x="320" y="360" width="20" height="20" fill="rgb(0,0,0)" opacity="1.0" shape-rendering="crispEdges" /><rect x="400" y="360" width="20" height="20" fill="rgb(0,0,0)" opacity="1.0" shape-rendering="crispEdges" /><rect x="460" y="360" width="20" height="20" fill="rgb(0,0,0)" opacity="1.0" shape-rendering="crispEdges" /><rect x="520" y="360" width="20" height="20" fill="rgb(0,0,0)" opacity="1.0" shape-rendering="crispEdges" /><rect x="540" y="360" width="20" height="20" fill="rgb(0,0,0)" opacity="1.0" shape-rendering="crispEdges" /><rect x="560" y="360" width="20" height="20" fill="rgb(0,0,0)" opacity="1.0" shape-rendering="crispEdges" /><rect x="580" y="360" width="20" height="20" fill="rgb(0,0,0)" opacity="1.0" shape-rendering="crispEdges" /><rect x="600" y="360" width="20" height="20" fill="rgb(0,0,0)" opacity="1.0" shape-rendering="crispEdges" /><rect x="620" y="360" width="20" height="20" fill="rgb(0,0,0)" opacity="1.0" shape-rendering="crispEdges" /><rect x="100" y="380" width="20" height="20" fill="rgb(0,0,0)" opacity="1.0" shape-rendering="crispEdges" /><rect x="180" y="380" width="20" height="20" fill="rgb(0,0,0)" opacity="1.0" shape-rendering="crispEdges" /><rect x="240" y="380" width="20" height="20" fill="rgb(0,0,0)" opacity="1.0" shape-rendering="crispEdges" /><rect x="260" y="380" width="20" height="20" fill="rgb(0,0,0)" opacity="1.0" shape-rendering="crispEdges" /><rect x="360" y="380" width="20" height="20" fill="rgb(0,0,0)" opacity="1.0" shape-rendering="crispEdges" /><rect x="460" y="380" width="20" height="20" fill="rgb(0,0,0)" opacity="1.0" shape-rendering="crispEdges" /><rect x="500" y="380" width="20" height="20" fill="rgb(0,0,0)" opacity="1.0" shape-rendering="crispEdges" /><rect x="620" y="380" width="20" height="20" fill="rgb(0,0,0)" opacity="1.0" shape-rendering="crispEdges" /><rect x="80" y="400" width="20" height="20" fill="rgb(0,0,0)" opacity="1.0" shape-rendering="crispEdges" /><rect x="120" y="400" width="20" height="20" fill="rgb(0,0,0)" opacity="1.0" shape-rendering="crispEdges" /><rect x="140" y="400" width="20" height="20" fill="rgb(0,0,0)" opacity="1.0" shape-rendering="crispEdges" /><rect x="160" y="400" width="20" height="20" fill="rgb(0,0,0)" opacity="1.0" shape-rendering="crispEdges" /><rect x="180" y="400" width="20" height="20" fill="rgb(0,0,0)" opacity="1.0" shape-rendering="crispEdges" /><rect x="200" y="400" width="20" height="20" fill="rgb(0,0,0)" opacity="1.0" shape-rendering="crispEdges" /><rect x="220" y="400" width="20" height="20" fill="rgb(0,0,0)" opacity="1.0" shape-rendering="crispEdges" /><rect x="340" y="400" width="20" height="20" fill="rgb(0,0,0)" opacity="1.0" shape-rendering="crispEdges" /><rect x="360" y="400" width="20" height="20" fill="rgb(0,0,0)" opacity="1.0" shape-rendering="crispEdges" /><rect x="380" y="400" width="20" height="20" fill="rgb(0,0,0)" opacity="1.0" shape-rendering="crispEdges" /><rect x="400" y="400" width="20" height="20" fill="rgb(0,0,0)" opacity="1.0" shape-rendering="crispEdges" /><rect x="420" y="400" width="20" height="20" fill="rgb(0,0,0)" opacity="1.0" shape-rendering="crispEdges" /><rect x="460" y="400" width="20" height="20" fill="rgb(0,0,0)" opacity="1.0" shape-rendering="crispEdges" /><rect x="480" y="400" width="20" height="20" fill="rgb(0,0,0)" opacity="1.0" shape-rendering="crispEdges" /><rect x="520" y="400" width="20" height="20" fill="rgb(0,0,0)" opacity="1.0" shape-rendering="crispEdges" /><rect x="540" y="400" width="20" height="20" fill="rgb(0,0,0)" opacity="1.0" shape-rendering="crispEdges" /><rect x="560" y="400" width="20" height="20" fill="rgb(0,0,0)" opacity="1.0" shape-rendering="crispEdges" /><rect x="580" y="400" width="20" height="20" fill="rgb(0,0,0)" opacity="1.0" shape-rendering="crispEdges" /><rect x="600" y="400" width="20" height="20" fill="rgb(0,0,0)" opacity="1.0" shape-rendering="crispEdges" /><rect x="620" y="400" width="20" height="20" fill="rgb(0,0,0)" opacity="1.0" shape-rendering="crispEdges" /><rect x="80" y="420" width="20" height="20" fill="rgb(0,0,0)" opacity="1.0" shape-rendering="crispEdges" /><rect x="120" y="420" width="20" height="20" fill="rgb(0,0,0)" opacity="1.0" shape-rendering="crispEdges" /><rect x="220" y="420" width="20" height="20" fill="rgb(0,0,0)" opacity="1.0" shape-rendering="crispEdges" /><rect x="260" y="420" width="20" height="20" fill="rgb(0,0,0)" opacity="1.0" shape-rendering="crispEdges" /><rect x="300" y="420" width="20" height="20" fill="rgb(0,0,0)" opacity="1.0" shape-rendering="crispEdges" /><rect x="440" y="420" width="20" height="20" fill="rgb(0,0,0)" opacity="1.0" shape-rendering="crispEdges" /><rect x="540" y="420" width="20" height="20" fill="rgb(0,0,0)" opacity="1.0" shape-rendering="crispEdges" /><rect x="560" y="420" width="20" height="20" fill="rgb(0,0,0)" opacity="1.0" shape-rendering="crispEdges" /><rect x="600" y="420" width="20" height="20" fill="rgb(0,0,0)" opacity="1.0" shape-rendering="crispEdges" /><rect x="140" y="440" width="20" height="20" fill="rgb(0,0,0)" opacity="1.0" shape-rendering="crispEdges" /><rect x="160" y="440" width="20" height="20" fill="rgb(0,0,0)" opacity="1.0" shape-rendering="crispEdges" /><rect x="200" y="440" width="20" height="20" fill="rgb(0,0,0)" opacity="1.0" shape-rendering="crispEdges" /><rect x="300" y="440" width="20" height="20" fill="rgb(0,0,0)" opacity="1.0" shape-rendering="crispEdges" /><rect x="320" y="440" width="20" height="20" fill="rgb(0,0,0)" opacity="1.0" shape-rendering="crispEdges" /><rect x="340" y="440" width="20" height="20" fill="rgb(0,0,0)" opacity="1.0" shape-rendering="crispEdges" /><rect x="360" y="440" width="20" height="20" fill="rgb(0,0,0)" opacity="1.0" shape-rendering="crispEdges" /><rect x="380" y="440" width="20" height="20" fill="rgb(0,0,0)" opacity="1.0" shape-rendering="crispEdges" /><rect x="440" y="440" width="20" height="20" fill="rgb(0,0,0)" opacity="1.0" shape-rendering="crispEdges" /><rect x="460" y="440" width="20" height="20" fill="rgb(0,0,0)" opacity="1.0" shape-rendering="crispEdges" /><rect x="520" y="440" width="20" height="20" fill="rgb(0,0,0)" opacity="1.0" shape-rendering="crispEdges" /><rect x="540" y="440" width="20" height="20" fill="rgb(0,0,0)" opacity="1.0" shape-rendering="crispEdges" /><rect x="560" y="440" width="20" height="20" fill="rgb(0,0,0)" opacity="1.0" shape-rendering="crispEdges" /><rect x="580" y="440" width="20" height="20" fill="rgb(0,0,0)" opacity="1.0" shape-rendering="crispEdges" /><rect x="600" y="440" width="20" height="20" fill="rgb(0,0,0)" opacity="1.0" shape-rendering="crispEdges" /><rect x="120" y="460" width="20" height="20" fill="rgb(0,0,0)" opacity="1.0" shape-rendering="crispEdges" /><rect x="160" y="460" width="20" height="20" fill="rgb(0,0,0)" opacity="1.0" shape-rendering="crispEdges" /><rect x="220" y="460" width="20" height="20" fill="rgb(0,0,0)" opacity="1.0" shape-rendering="crispEdges" /><rect x="240" y="460" width="20" height="20" fill="rgb(0,0,0)" opacity="1.0" shape-rendering="crispEdges" /><rect x="300" y="460" width="20" height="20" fill="rgb(0,0,0)" opacity="1.0" shape-rendering="crispEdges" /><rect x="340" y="460" width="20" height="20" fill="rgb(0,0,0)" opacity="1.0" shape-rendering="crispEdges" /><rect x="380" y="460" width="20" height="20" fill="rgb(0,0,0)" opacity="1.0" shape-rendering="crispEdges" /><rect x="400" y="460" width="20" height="20" fill="rgb(0,0,0)" opacity="1.0" shape-rendering="crispEdges" /><rect x="460" y="460" width="20" height="20" fill="rgb(0,0,0)" opacity="1.0" shape-rendering="crispEdges" /><rect x="480" y="460" width="20" height="20" fill="rgb(0,0,0)" opacity="1.0" shape-rendering="crispEdges" /><rect x="500" y="460" width="20" height="20" fill="rgb(0,0,0)" opacity="1.0" shape-rendering="crispEdges" /><rect x="640" y="460" width="20" height="20" fill="rgb(0,0,0)" opacity="1.0" shape-rendering="crispEdges" /><rect x="80" y="480" width="20" height="20" fill="rgb(0,0,0)" opacity="1.0" shape-rendering="crispEdges" /><rect x="100" y="480" width="20" height="20" fill="rgb(0,0,0)" opacity="1.0" shape-rendering="crispEdges" /><rect x="120" y="480" width="20" height="20" fill="rgb(0,0,0)" opacity="1.0" shape-rendering="crispEdges" /><rect x="160" y="480" width="20" height="20" fill="rgb(0,0,0)" opacity="1.0" shape-rendering="crispEdges" /><rect x="180" y="480" width="20" height="20" fill="rgb(0,0,0)" opacity="1.0" shape-rendering="crispEdges" /><rect x="200" y="480" width="20" height="20" fill="rgb(0,0,0)" opacity="1.0" shape-rendering="crispEdges" /><rect x="240" y="480" width="20" height="20" fill="rgb(0,0,0)" opacity="1.0" shape-rendering="crispEdges" /><rect x="280" y="480" width="20" height="20" fill="rgb(0,0,0)" opacity="1.0" shape-rendering="crispEdges" /><rect x="320" y="480" width="20" height="20" fill="rgb(0,0,0)" opacity="1.0" shape-rendering="crispEdges" /><rect x="340" y="480" width="20" height="20" fill="rgb(0,0,0)" opacity="1.0" shape-rendering="crispEdges" /><rect x="440" y="480" width="20" height="20" fill="rgb(0,0,0)" opacity="1.0" shape-rendering="crispEdges" /><rect x="460" y="480" width="20" height="20" fill="rgb(0,0,0)" opacity="1.0" shape-rendering="crispEdges" /><rect x="480" y="480" width="20" height="20" fill="rgb(0,0,0)" opacity="1.0" shape-rendering="crispEdges" /><rect x="500" y="480" width="20" height="20" fill="rgb(0,0,0)" opacity="1.0" shape-rendering="crispEdges" /><rect x="520" y="480" width="20" height="20" fill="rgb(0,0,0)" opacity="1.0" shape-rendering="crispEdges" /><rect x="540" y="480" width="20" height="20" fill="rgb(0,0,0)" opacity="1.0" shape-rendering="crispEdges" /><rect x="560" y="480" width="20" height="20" fill="rgb(0,0,0)" opacity="1.0" shape-rendering="crispEdges" /><rect x="240" y="500" width="20" height="20" fill="rgb(0,0,0)" opacity="1.0" shape-rendering="crispEdges" /><rect x="260" y="500" width="20" height="20" fill="rgb(0,0,0)" opacity="1.0" shape-rendering="crispEdges" /><rect x="320" y="500" width="20" height="20" fill="rgb(0,0,0)" opacity="1.0" shape-rendering="crispEdges" /><rect x="340" y="500" width="20" height="20" fill="rgb(0,0,0)" opacity="1.0" shape-rendering="crispEdges" /><rect x="360" y="500" width="20" height="20" fill="rgb(0,0,0)" opacity="1.0" shape-rendering="crispEdges" /><rect x="400" y="500" width="20" height="20" fill="rgb(0,0,0)" opacity="1.0" shape-rendering="crispEdges" /><rect x="480" y="500" width="20" height="20" fill="rgb(0,0,0)" opacity="1.0" shape-rendering="crispEdges" /><rect x="560" y="500" width="20" height="20" fill="rgb(0,0,0)" opacity="1.0" shape-rendering="crispEdges" /><rect x="580" y="500" width="20" height="20" fill="rgb(0,0,0)" opacity="1.0" shape-rendering="crispEdges" /><rect x="600" y="500" width="20" height="20" fill="rgb(0,0,0)" opacity="1.0" shape-rendering="crispEdges" /><rect x="240" y="520" width="20" height="20" fill="rgb(0,0,0)" opacity="1.0" shape-rendering="crispEdges" /><rect x="260" y="520" width="20" height="20" fill="rgb(0,0,0)" opacity="1.0" shape-rendering="crispEdges" /><rect x="280" y="520" width="20" height="20" fill="rgb(0,0,0)" opacity="1.0" shape-rendering="crispEdges" /><rect x="400" y="520" width="20" height="20" fill="rgb(0,0,0)" opacity="1.0" shape-rendering="crispEdges" /><rect x="440" y="520" width="20" height="20" fill="rgb(0,0,0)" opacity="1.0" shape-rendering="crispEdges" /><rect x="460" y="520" width="20" height="20" fill="rgb(0,0,0)" opacity="1.0" shape-rendering="crispEdges" /><rect x="480" y="520" width="20" height="20" fill="rgb(0,0,0)" opacity="1.0" shape-rendering="crispEdges" /><rect x="520" y="520" width="20" height="20" fill="rgb(0,0,0)" opacity="1.0" shape-rendering="crispEdges" /><rect x="560" y="520" width="20" height="20" fill="rgb(0,0,0)" opacity="1.0" shape-rendering="crispEdges" /><rect x="580" y="520" width="20" height="20" fill="rgb(0,0,0)" opacity="1.0" shape-rendering="crispEdges" /><rect x="600" y="520" width="20" height="20" fill="rgb(0,0,0)" opacity="1.0" shape-rendering="crispEdges" /><rect x="640" y="520" width="20" height="20" fill="rgb(0,0,0)" opacity="1.0" shape-rendering="crispEdges" /><rect x="260" y="540" width="20" height="20" fill="rgb(0,0,0)" opacity="1.0" shape-rendering="crispEdges" /><rect x="280" y="540" width="20" height="20" fill="rgb(0,0,0)" opacity="1.0" shape-rendering="crispEdges" /><rect x="320" y="540" width="20" height="20" fill="rgb(0,0,0)" opacity="1.0" shape-rendering="crispEdges" /><rect x="360" y="540" width="20" height="20" fill="rgb(0,0,0)" opacity="1.0" shape-rendering="crispEdges" /><rect x="460" y="540" width="20" height="20" fill="rgb(0,0,0)" opacity="1.0" shape-rendering="crispEdges" /><rect x="480" y="540" width="20" height="20" fill="rgb(0,0,0)" opacity="1.0" shape-rendering="crispEdges" /><rect x="560" y="540" width="20" height="20" fill="rgb(0,0,0)" opacity="1.0" shape-rendering="crispEdges" /><rect x="600" y="540" width="20" height="20" fill="rgb(0,0,0)" opacity="1.0" shape-rendering="crispEdges" /><rect x="620" y="540" width="20" height="20" fill="rgb(0,0,0)" opacity="1.0" shape-rendering="crispEdges" /><rect x="240" y="560" width="20" height="20" fill="rgb(0,0,0)" opacity="1.0" shape-rendering="crispEdges" /><rect x="320" y="560" width="20" height="20" fill="rgb(0,0,0)" opacity="1.0" shape-rendering="crispEdges" /><rect x="340" y="560" width="20" height="20" fill="rgb(0,0,0)" opacity="1.0" shape-rendering="crispEdges" /><rect x="360" y="560" width="20" height="20" fill="rgb(0,0,0)" opacity="1.0" shape-rendering="crispEdges" /><rect x="380" y="560" width="20" height="20" fill="rgb(0,0,0)" opacity="1.0" shape-rendering="crispEdges" /><rect x="420" y="560" width="20" height="20" fill="rgb(0,0,0)" opacity="1.0" shape-rendering="crispEdges" /><rect x="480" y="560" width="20" height="20" fill="rgb(0,0,0)" opacity="1.0" shape-rendering="crispEdges" /><rect x="500" y="560" width="20" height="20" fill="rgb(0,0,0)" opacity="1.0" shape-rendering="crispEdges" /><rect x="520" y="560" width="20" height="20" fill="rgb(0,0,0)" opacity="1.0" shape-rendering="crispEdges" /><rect x="540" y="560" width="20" height="20" fill="rgb(0,0,0)" opacity="1.0" shape-rendering="crispEdges" /><rect x="560" y="560" width="20" height="20" fill="rgb(0,0,0)" opacity="1.0" shape-rendering="crispEdges" /><rect x="580" y="560" width="20" height="20" fill="rgb(0,0,0)" opacity="1.0" shape-rendering="crispEdges" /><rect x="640" y="560" width="20" height="20" fill="rgb(0,0,0)" opacity="1.0" shape-rendering="crispEdges" /><rect x="280" y="580" width="20" height="20" fill="rgb(0,0,0)" opacity="1.0" shape-rendering="crispEdges" /><rect x="340" y="580" width="20" height="20" fill="rgb(0,0,0)" opacity="1.0" shape-rendering="crispEdges" /><rect x="460" y="580" width="20" height="20" fill="rgb(0,0,0)" opacity="1.0" shape-rendering="crispEdges" /><rect x="500" y="580" width="20" height="20" fill="rgb(0,0,0)" opacity="1.0" shape-rendering="crispEdges" /><rect x="540" y="580" width="20" height="20" fill="rgb(0,0,0)" opacity="1.0" shape-rendering="crispEdges" /><rect x="580" y="580" width="20" height="20" fill="rgb(0,0,0)" opacity="1.0" shape-rendering="crispEdges" /><rect x="600" y="580" width="20" height="20" fill="rgb(0,0,0)" opacity="1.0" shape-rendering="crispEdges" /><rect x="620" y="580" width="20" height="20" fill="rgb(0,0,0)" opacity="1.0" shape-rendering="crispEdges" /><rect x="260" y="600" width="20" height="20" fill="rgb(0,0,0)" opacity="1.0" shape-rendering="crispEdges" /><rect x="280" y="600" width="20" height="20" fill="rgb(0,0,0)" opacity="1.0" shape-rendering="crispEdges" /><rect x="360" y="600" width="20" height="20" fill="rgb(0,0,0)" opacity="1.0" shape-rendering="crispEdges" /><rect x="380" y="600" width="20" height="20" fill="rgb(0,0,0)" opacity="1.0" shape-rendering="crispEdges" /><rect x="400" y="600" width="20" height="20" fill="rgb(0,0,0)" opacity="1.0" shape-rendering="crispEdges" /><rect x="460" y="600" width="20" height="20" fill="rgb(0,0,0)" opacity="1.0" shape-rendering="crispEdges" /><rect x="520" y="600" width="20" height="20" fill="rgb(0,0,0)" opacity="1.0" shape-rendering="crispEdges" /><rect x="560" y="600" width="20" height="20" fill="rgb(0,0,0)" opacity="1.0" shape-rendering="crispEdges" /><rect x="600" y="600" width="20" height="20" fill="rgb(0,0,0)" opacity="1.0" shape-rendering="crispEdges" /><rect x="620" y="600" width="20" height="20" fill="rgb(0,0,0)" opacity="1.0" shape-rendering="crispEdges" /><rect x="640" y="600" width="20" height="20" fill="rgb(0,0,0)" opacity="1.0" shape-rendering="crispEdges" /><rect x="280" y="620" width="20" height="20" fill="rgb(0,0,0)" opacity="1.0" shape-rendering="crispEdges" /><rect x="300" y="620" width="20" height="20" fill="rgb(0,0,0)" opacity="1.0" shape-rendering="crispEdges" /><rect x="320" y="620" width="20" height="20" fill="rgb(0,0,0)" opacity="1.0" shape-rendering="crispEdges" /><rect x="360" y="620" width="20" height="20" fill="rgb(0,0,0)" opacity="1.0" shape-rendering="crispEdges" /><rect x="380" y="620" width="20" height="20" fill="rgb(0,0,0)" opacity="1.0" shape-rendering="crispEdges" /><rect x="400" y="620" width="20" height="20" fill="rgb(0,0,0)" opacity="1.0" shape-rendering="crispEdges" /><rect x="480" y="620" width="20" height="20" fill="rgb(0,0,0)" opacity="1.0" shape-rendering="crispEdges" /><rect x="520" y="620" width="20" height="20" fill="rgb(0,0,0)" opacity="1.0" shape-rendering="crispEdges" /><rect x="540" y="620" width="20" height="20" fill="rgb(0,0,0)" opacity="1.0" shape-rendering="crispEdges" /><rect x="560" y="620" width="20" height="20" fill="rgb(0,0,0)" opacity="1.0" shape-rendering="crispEdges" /><rect x="580" y="620" width="20" height="20" fill="rgb(0,0,0)" opacity="1.0" shape-rendering="crispEdges" /><rect x="600" y="620" width="20" height="20" fill="rgb(0,0,0)" opacity="1.0" shape-rendering="crispEdges" /><rect x="240" y="640" width="20" height="20" fill="rgb(0,0,0)" opacity="1.0" shape-rendering="crispEdges" /><rect x="320" y="640" width="20" height="20" fill="rgb(0,0,0)" opacity="1.0" shape-rendering="crispEdges" /><rect x="340" y="640" width="20" height="20" fill="rgb(0,0,0)" opacity="1.0" shape-rendering="crispEdges" /><rect x="360" y="640" width="20" height="20" fill="rgb(0,0,0)" opacity="1.0" shape-rendering="crispEdges" /><rect x="400" y="640" width="20" height="20" fill="rgb(0,0,0)" opacity="1.0" shape-rendering="crispEdges" /><rect x="420" y="640" width="20" height="20" fill="rgb(0,0,0)" opacity="1.0" shape-rendering="crispEdges" /><rect x="460" y="640" width="20" height="20" fill="rgb(0,0,0)" opacity="1.0" shape-rendering="crispEdges" /><rect x="480" y="640" width="20" height="20" fill="rgb(0,0,0)" opacity="1.0" shape-rendering="crispEdges" /><rect x="500" y="640" width="20" height="20" fill="rgb(0,0,0)" opacity="1.0" shape-rendering="crispEdges" /><rect x="520" y="640" width="20" height="20" fill="rgb(0,0,0)" opacity="1.0" shape-rendering="crispEdges" /><rect x="560" y="640" width="20" height="20" fill="rgb(0,0,0)" opacity="1.0" shape-rendering="crispEdges" /><rect x="620" y="640" width="20" height="20" fill="rgb(0,0,0)" opacity="1.0" shape-rendering="crispEdges" /><path d="M80 80 H192.0 A28.0 28.0 0 0 1 220 108.0 V192.0 A28.0 28.0 0 0 1 192.0 220 H108.0 A28.0 28.0 0 0 1 80 192.0 V108.0 A28.0 28.0 0 0 1 108 80 Z M100.0 100.0 H180.0 A20.0 20.0 0 0 1 200.0 120.0 V180.0 A20.0 20.0 0 0 1 180.0 200.0 H120.0 A20.0 20.0 0 0 1 100.0 180.0 V120.0 A20.0 20.0 0 0 1 120.0 100.0 Z" fill-rule="evenodd" fill="rgb(0,0,0)" opacity="1.0" /><path d="M520 80 H632.0 A28.0 28.0 0 0 1 660 108.0 V192.0 A28.0 28.0 0 0 1 632.0 220 H548.0 A28.0 28.0 0 0 1 520 192.0 V108.0 A28.0 28.0 0 0 1 548 80 Z M540.0 100.0 H620.0 A20.0 20.0 0 0 1 640.0 120.0 V180.0 A20.0 20.0 0 0 1 620.0 200.0 H560.0 A20.0 20.0 0 0 1 540.0 180.0 V120.0 A20.0 20.0 0 0 1 560.0 100.0 Z" fill-rule="evenodd" fill="rgb(0,0,0)" opacity="1.0" /><rect x="120" y="120" width="60" height="60" fill="rgb(0,0,0)" opacity="1.0" shape-rendering="crispEdges" /><rect x="560" y="120" width="60" height="60" fill="rgb(0,0,0)" opacity="1.0" shape-rendering="crispEdges" /><path d="M80 520 H192.0 A28.0 28.0 0 0 1 220 548.0 V632.0 A28.0 28.0 0 0 1 192.0 660 H108.0 A28.0 28.0 0 0 1 80 632.0 V548.0 A28.0 28.0 0 0 1 108 520 Z M100.0 540.0 H180.0 A20.0 20.0 0 0 1 200.0 560.0 V620.0 A20.0 20.0 0 0 1 180.0 640.0 H120.0 A20.0 20.0 0 0 1 100.0 620.0 V560.0 A20.0 20.0 0 0 1 120.0 540.0 Z" fill-rule="evenodd" fill="rgb(0,0,0)" opacity="1.0" /><rect x="120" y="560" width="60" height="60" fill="rgb(0,0,0)" opacity="1.0" shape-rendering="crispEdges" /></svg></g></svg>